<svg width="271" height="216" viewBox="0 0 271 216" fill="none" xmlns="http://www.w3.org/2000/svg">
<path d="M54 0.625C68.6226 0.625 81.9929 12.3813 91.7373 31.6895C101.467 50.9692 107.5 77.6392 107.5 107.125C107.5 136.611 101.467 163.281 91.7373 182.561C81.9929 201.869 68.6226 213.625 54 213.625C39.3774 213.625 26.0071 201.869 16.2627 182.561C6.53274 163.281 0.5 136.611 0.5 107.125C0.5 77.6392 6.53274 50.9692 16.2627 31.6895C26.0071 12.3813 39.3774 0.625 54 0.625Z" stroke="#44FFA1"/>
<path d="M94.7061 0.5C109.329 0.5 122.699 12.2563 132.443 31.5645C142.173 50.8442 148.206 77.5142 148.206 107C148.206 136.486 142.173 163.156 132.443 182.436C122.699 201.744 109.329 213.5 94.7061 213.5C80.0834 213.5 66.7131 201.744 56.9687 182.436C47.2388 163.156 41.2061 136.486 41.2061 107C41.2061 77.5142 47.2388 50.8442 56.9688 31.5645C66.7131 12.2563 80.0834 0.5 94.7061 0.5Z" stroke="#44FFA1"/>
<path opacity="0.75" d="M134.529 0.844482C148.871 0.844482 161.992 12.5943 171.558 31.906C181.108 51.1866 187.029 77.8574 187.029 107.344C187.029 136.832 181.108 163.502 171.558 182.783C161.992 202.095 148.871 213.844 134.529 213.844C120.188 213.844 107.067 202.095 97.501 182.783C87.9508 163.502 82.0293 136.832 82.0293 107.344C82.0293 77.8574 87.9508 51.1866 97.501 31.906C107.067 12.5943 120.188 0.844482 134.529 0.844482Z" stroke="#44FFA1"/>
<path opacity="0.5" d="M175.705 1.60242C190.327 1.60242 203.698 13.3588 213.442 32.6669C223.172 51.9466 229.205 78.6166 229.205 108.102C229.205 137.588 223.172 164.258 213.442 183.538C203.698 202.846 190.327 214.602 175.705 214.602C161.082 214.602 147.712 202.846 137.968 183.538C128.238 164.258 122.205 137.588 122.205 108.102C122.205 78.6166 128.238 51.9466 137.968 32.6669C147.712 13.3588 161.082 1.60242 175.705 1.60242Z" stroke="#44FFA1"/>
<path opacity="0.25" d="M217.294 1.00806C231.635 1.00806 244.756 12.7578 254.322 32.0696C263.872 51.3501 269.794 78.021 269.794 107.508C269.794 136.995 263.872 163.666 254.322 182.947C244.756 202.258 231.635 214.008 217.294 214.008C202.952 214.008 189.831 202.258 180.265 182.947C170.715 163.666 164.794 136.995 164.794 107.508C164.794 78.021 170.715 51.3501 180.265 32.0696C189.831 12.7578 202.952 1.00806 217.294 1.00806Z" stroke="#44FFA1"/>
</svg>
