<svg width="142" height="113" viewBox="0 0 142 113" fill="none" xmlns="http://www.w3.org/2000/svg">
<path d="M28 1.12091C35.4406 1.12091 42.3111 7.16603 47.3516 17.2469C52.377 27.2978 55.5 41.2178 55.5 56.6209C55.5 72.024 52.377 85.944 47.3516 95.9949C42.3111 106.076 35.4406 112.121 28 112.121C20.5594 112.121 13.6889 106.076 8.64844 95.9949C3.62302 85.944 0.5 72.024 0.5 56.6209C0.5 41.2178 3.62302 27.2978 8.64844 17.2469C13.6889 7.16603 20.5594 1.12091 28 1.12091Z" stroke="#44FFA1"/>
<path d="M49.6331 1.00391C57.0736 1.00391 63.9442 7.04903 68.9846 17.1299C74.01 27.1808 77.1331 41.1008 77.1331 56.5039C77.1331 71.907 74.01 85.827 68.9846 95.8779C63.9442 105.959 57.0736 112.004 49.6331 112.004C42.1925 112.004 35.3219 105.959 30.2815 95.8779C25.2561 85.827 22.1331 71.907 22.1331 56.5039C22.1331 41.1008 25.2561 27.1808 30.2815 17.1299C35.3219 7.04903 42.1925 1.00391 49.6331 1.00391Z" stroke="#44FFA1"/>
<path opacity="0.75" d="M69.8777 0.617065C77.3183 0.617065 84.1888 6.66219 89.2292 16.743C94.2547 26.794 97.3777 40.714 97.3777 56.1171C97.3777 71.5201 94.2547 85.4402 89.2292 95.4911C84.1888 105.572 77.3183 111.617 69.8777 111.617C62.4371 111.617 55.5666 105.572 50.5261 95.4911C45.5007 85.4402 42.3777 71.5201 42.3777 56.1171C42.3777 40.714 45.5007 26.794 50.5261 16.743C55.5666 6.66219 62.4371 0.617065 69.8777 0.617065Z" stroke="#44FFA1"/>
<path opacity="0.5" d="M91.5107 0.5C98.9513 0.5 105.822 6.54512 110.862 16.626C115.888 26.6769 119.011 40.5969 119.011 56C119.011 71.4031 115.888 85.3231 110.862 95.374C105.822 105.455 98.9513 111.5 91.5107 111.5C84.0702 111.5 77.1996 105.455 72.1592 95.374C67.1338 85.3231 64.0107 71.4031 64.0107 56C64.0107 40.5969 67.1338 26.6769 72.1592 16.626C77.1996 6.54512 84.0702 0.5 91.5107 0.5Z" stroke="#44FFA1"/>
<path opacity="0.25" d="M113.703 1.21204C121.143 1.21204 128.014 7.25716 133.054 17.338C138.08 27.3889 141.203 41.309 141.203 56.712C141.203 72.1151 138.08 86.0351 133.054 96.0861C128.014 106.167 121.143 112.212 113.703 112.212C106.262 112.212 99.3917 106.167 94.3513 96.0861C89.3259 86.0351 86.2029 72.1151 86.2029 56.712C86.2029 41.309 89.3259 27.3889 94.3513 17.338C99.3917 7.25716 106.262 1.21204 113.703 1.21204Z" stroke="#44FFA1"/>
</svg>
