<svg width="173" height="137" viewBox="0 0 173 137" fill="none" xmlns="http://www.w3.org/2000/svg">
<path d="M34.5 0.5C43.7374 0.5 52.2324 7.94662 58.4482 20.2881C64.6495 32.6008 68.5 49.6455 68.5 68.5C68.5 87.3545 64.6495 104.399 58.4482 116.712C52.2324 129.053 43.7374 136.5 34.5 136.5C25.2626 136.5 16.7676 129.053 10.5518 116.712C4.35048 104.399 0.5 87.3545 0.5 68.5C0.5 49.6455 4.35048 32.6008 10.5518 20.2881C16.7676 7.94662 25.2626 0.5 34.5 0.5Z" stroke="#44FFA1"/>
<path d="M60.5 0.5C69.7374 0.5 78.2324 7.94662 84.4482 20.2881C90.6495 32.6008 94.5 49.6455 94.5 68.5C94.5 87.3545 90.6495 104.399 84.4482 116.712C78.2324 129.053 69.7374 136.5 60.5 136.5C51.2626 136.5 42.7676 129.053 36.5518 116.712C30.3505 104.399 26.5 87.3545 26.5 68.5C26.5 49.6455 30.3505 32.6008 36.5518 20.2881C42.7676 7.94662 51.2626 0.5 60.5 0.5Z" stroke="#44FFA1"/>
<path opacity="0.75" d="M86 0.5C95.0954 0.5 103.467 7.94103 109.594 20.2852C115.705 32.5985 119.5 49.6445 119.5 68.5C119.5 87.3555 115.705 104.402 109.594 116.715C103.467 129.059 95.0954 136.5 86 136.5C76.9046 136.5 68.5333 129.059 62.4063 116.715C56.2945 104.402 52.5 87.3555 52.5 68.5C52.5 49.6445 56.2945 32.5985 62.4063 20.2852C68.5333 7.94103 76.9046 0.5 86 0.5Z" stroke="#44FFA1"/>
<path opacity="0.5" d="M112.5 0.5C121.737 0.5 130.232 7.94662 136.448 20.2881C142.65 32.6008 146.5 49.6455 146.5 68.5C146.5 87.3545 142.65 104.399 136.448 116.712C130.232 129.053 121.737 136.5 112.5 136.5C103.263 136.5 94.7676 129.053 88.5518 116.712C82.3505 104.399 78.5 87.3545 78.5 68.5C78.5 49.6455 82.3505 32.6008 88.5518 20.2881C94.7676 7.94662 103.263 0.5 112.5 0.5Z" stroke="#44FFA1"/>
<path opacity="0.25" d="M139 0.5C148.095 0.5 156.467 7.94103 162.594 20.2852C168.705 32.5985 172.5 49.6445 172.5 68.5C172.5 87.3555 168.705 104.402 162.594 116.715C156.467 129.059 148.095 136.5 139 136.5C129.905 136.5 121.533 129.059 115.406 116.715C109.295 104.402 105.5 87.3555 105.5 68.5C105.5 49.6445 109.295 32.5985 115.406 20.2852C121.533 7.94103 129.905 0.5 139 0.5Z" stroke="#44FFA1"/>
</svg>
